<?xml version="1.0" ?><!-- Uploaded to: SVG Repo, www.svgrepo.com, Generator: SVG Repo Mixer Tools -->
<svg width="800px" height="800px" viewBox="0 0 64 64" data-name="Layer 1" id="Layer_1" xmlns="http://www.w3.org/2000/svg"><defs><style>.cls-1{fill:#838bc5;}.cls-2{fill:#65c8d0;}.cls-3{fill:#f4ecce;}.cls-4{fill:#fcdd7c;}</style></defs><path class="cls-1" d="M35.68,31.15,47.49,43a6,6,0,0,1,8,8l-3.29-3.29a2,2,0,0,0-2.83,2.83l3.29,3.28a6,6,0,0,1-8-8L32.85,34"/><path class="cls-1" d="M30,31.15,18.22,19.34a6,6,0,0,1-8-8l3.28,3.29a2,2,0,1,0,2.83-2.83L13.05,8.52a6,6,0,0,1,8,8l11.8,11.8"/><polyline class="cls-2" points="25.08 36.09 43.46 17.71 46.76 15.35 48.65 17.24 46.29 20.54 27.91 38.92"/><rect class="cls-3" height="4" transform="translate(34.87 -6.33) rotate(45)" width="10" x="20.08" y="36.92"/><path class="cls-2" d="M26.49,43.17,17.56,54.08a5.43,5.43,0,0,1-8,.4h0a5.43,5.43,0,0,1,.4-8l10.92-8.93"/><rect class="cls-4" height="2" transform="translate(-26.54 26.5) rotate(-45)" width="8" x="14.72" y="44.29"/><rect class="cls-4" height="2" transform="translate(-31.49 24.45) rotate(-45)" width="2" x="12.76" y="49.24"/></svg>