<?xml version="1.0" encoding="iso-8859-1"?>
<!-- Uploaded to: SVG Repo, www.svgrepo.com, Generator: SVG Repo Mixer Tools -->
<svg height="800px" width="800px" version="1.1" id="Layer_1" xmlns="http://www.w3.org/2000/svg" xmlns:xlink="http://www.w3.org/1999/xlink" 
	 viewBox="0 0 512 512" xml:space="preserve">
<path style="fill:#D4F2E8;" d="M7.885,353.774c0,17.42,14.12,31.54,31.54,31.54h2.103c17.42,0,31.54-14.12,31.54-31.54v-157.7
	c0-16.258,13.18-29.437,29.437-29.437s29.437,13.18,29.437,29.437v73.593c0,17.42,14.12,31.54,31.54,31.54h2.103
	c17.42,0,31.54-14.12,31.54-31.54v-73.593c0-16.258,13.18-29.437,29.437-29.437h111.441c17.42,0,31.54-14.12,31.54-31.54V18.924
	H7.885V353.774z"/>
<path style="fill:#62C9CC;" d="M39.425,369.544c-8.696,0-15.77-7.074-15.77-15.77V18.924h330.119v116.172
	c0,8.696-7.074,15.77-15.77,15.77H226.563c-24.927,0-45.207,20.28-45.207,45.207v73.593c0,8.696-7.074,15.77-15.77,15.77h-2.103
	c-8.696,0-15.77-7.074-15.77-15.77v-73.593c0-24.927-20.28-45.207-45.207-45.207s-45.207,20.28-45.207,45.207v157.7
	c0,8.696-7.074,15.77-15.77,15.77H39.425z"/>
<path style="fill:#F2F2F2;" d="M462.062,74.119c0-33.423-26-60.759-58.875-62.926v-0.155H117.224v126.16h285.963v-0.155
	C436.062,134.878,462.062,107.542,462.062,74.119z"/>
<circle style="fill:#E5E5E5;" cx="117.224" cy="74.119" r="63.08"/>
<circle style="fill:#808080;" cx="117.224" cy="74.119" r="33.643"/>
<path style="fill:#EB6836;" d="M288.591,500.961h-31.54c-8.709,0-15.77-7.061-15.77-15.77V365.339c0-8.709,7.061-15.77,15.77-15.77
	h31.54c8.709,0,15.77,7.061,15.77,15.77v119.852C304.361,493.9,297.301,500.961,288.591,500.961z"/>
<path style="fill:#C74B38;" d="M257.051,349.569c-8.709,0-15.77,7.061-15.77,15.77v119.852c0,8.709,7.061,15.77,15.77,15.77h4.205
	V349.569H257.051z"/>
<path style="fill:#CCCCCC;" d="M203.959,11.039v60.452c0,17.391,14.149,31.54,31.54,31.54s31.54-14.149,31.54-31.54v26.283
	c0,17.391,14.149,31.54,31.54,31.54s31.54-14.149,31.54-31.54V79.901c0,17.391,14.149,31.54,31.54,31.54s31.54-14.149,31.54-31.54
	V11.039H203.959z"/>
<path style="fill:#62C9CC;" d="M377.429,11.039h-157.7v60.452c0,8.709,7.061,15.77,15.77,15.77c8.709,0,15.77-7.061,15.77-15.77
	v-3.154v-1.051c0-8.709,7.061-15.77,15.77-15.77s15.77,7.061,15.77,15.77v1.051v29.437c0,8.709,7.061,15.77,15.77,15.77
	s15.77-7.061,15.77-15.77V57.823v-1.051c0-8.709,7.061-15.77,15.77-15.77s15.77,7.061,15.77,15.77v1.051v22.078
	c0,8.709,7.061,15.77,15.77,15.77s15.77-7.061,15.77-15.77V11.039z"/>
<path d="M7.885,58.875c4.356,0,7.885-3.53,7.885-7.885V17.347c0-4.355-3.529-7.885-7.885-7.885S0,12.992,0,17.347V50.99
	C0,55.344,3.529,58.875,7.885,58.875z"/>
<path d="M158.752,74.119c0-22.898-18.63-41.528-41.528-41.528s-41.528,18.63-41.528,41.528s18.63,41.528,41.528,41.528
	S158.752,97.017,158.752,74.119z M91.466,74.119c0-14.202,11.554-25.758,25.758-25.758s25.758,11.555,25.758,25.758
	s-11.554,25.758-25.758,25.758S91.466,88.322,91.466,74.119z"/>
<path d="M472.575,70.439h-2.729c-1.814-35.054-29.365-63.855-64.5-66.986c-0.685-0.196-1.41-0.3-2.158-0.3H117.224
	c-39.131,0-70.965,31.834-70.965,70.965s31.834,70.965,70.965,70.965h242.223c-3.802,8.232-12.036,13.667-21.443,13.667H226.563
	c-20.58,0-37.322,16.743-37.322,37.322v73.593c0,13.044-10.612,23.655-23.655,23.655h-2.103c-13.043,0-23.655-10.611-23.655-23.655
	v-73.593c0-20.58-16.743-37.322-37.322-37.322s-37.322,16.743-37.322,37.322v157.7c0,13.044-10.612,23.655-23.655,23.655h-2.103
	c-13.043,0-23.655-10.611-23.655-23.655V93.043c0-4.355-3.529-7.885-7.885-7.885S0,88.688,0,93.043v260.731
	c0,21.74,17.686,39.425,39.425,39.425h2.103c21.74,0,39.425-17.686,39.425-39.425v-157.7c0-11.884,9.668-21.552,21.552-21.552
	s21.552,9.668,21.552,21.552v73.593c0,21.74,17.686,39.425,39.425,39.425h2.103c21.739,0,39.425-17.686,39.425-39.425v-73.593
	c0-11.884,9.668-21.552,21.552-21.552h111.441c18.091,0,33.612-12.05,38.139-29.437h27.043c0.749,0,1.473-0.104,2.159-0.3
	c32.278-2.876,58.143-27.424,63.544-58.575h3.685c13.043,0,23.655,10.611,23.655,23.655v54.669
	c0,13.044-10.612,23.655-23.655,23.655H304.361c-21.74,0-39.425,17.686-39.425,39.425v42.053c0,4.355,3.529,7.885,7.885,7.885
	c4.356,0,7.885-3.53,7.885-7.885v-42.053c0-13.044,10.612-23.655,23.655-23.655h168.214c21.74,0,39.425-17.686,39.425-39.425
	v-54.669C512,88.125,494.314,70.439,472.575,70.439z M330.119,33.117c-13.043,0-23.655,10.611-23.655,23.655v41.002
	c0,4.348-3.537,7.885-7.885,7.885s-7.885-3.537-7.885-7.885V67.285c0-13.044-10.612-23.655-23.655-23.655
	c-13.043,0-23.655,10.611-23.655,23.655v4.205c0,4.348-3.537,7.885-7.885,7.885c-4.348,0-7.885-3.537-7.885-7.885V18.924h141.93
	v60.977c0,4.348-3.537,7.885-7.885,7.885s-7.885-3.537-7.885-7.885V56.772C353.774,43.728,343.162,33.117,330.119,33.117z
	 M62.029,74.119c0-30.435,24.761-55.195,55.195-55.195s55.195,24.76,55.195,55.195s-24.761,55.195-55.195,55.195
	S62.029,104.554,62.029,74.119z M402.669,129.176c-0.354,0.023-0.702,0.069-1.041,0.138H161.759
	c16.105-13.02,26.43-32.92,26.43-55.195s-10.324-42.175-26.43-55.195h50.085v52.567c0,13.044,10.612,23.655,23.655,23.655
	s23.655-10.611,23.655-23.655v-4.205c0-4.348,3.537-7.885,7.885-7.885c4.348,0,7.885,3.537,7.885,7.885v30.489
	c0,13.044,10.612,23.655,23.655,23.655c13.043,0,23.655-10.611,23.655-23.655V56.772c0-4.348,3.537-7.885,7.885-7.885
	s7.885,3.537,7.885,7.885v23.129c0,13.044,10.612,23.655,23.655,23.655s23.655-10.611,23.655-23.655V18.924h16.314
	c0.339,0.068,0.687,0.115,1.041,0.138c28.882,1.903,51.508,26.088,51.508,55.057S431.551,127.274,402.669,129.176z"/>
<path d="M288.591,341.684h-7.885v-29.963c0-4.355-3.529-7.885-7.885-7.885c-4.356,0-7.885,3.53-7.885,7.885v29.963h-7.885
	c-13.043,0-23.655,10.611-23.655,23.655v119.852c0,13.044,10.612,23.655,23.655,23.655h31.54c13.043,0,23.655-10.611,23.655-23.655
	V365.339C312.246,352.295,301.634,341.684,288.591,341.684z M296.476,485.191c0,4.348-3.537,7.885-7.885,7.885h-31.54
	c-4.348,0-7.885-3.537-7.885-7.885V365.339c0-4.348,3.537-7.885,7.885-7.885h31.54c4.348,0,7.885,3.537,7.885,7.885V485.191z"/>
</svg>