<?xml version="1.0" encoding="iso-8859-1"?>
<!-- Uploaded to: SVG Repo, www.svgrepo.com, Generator: SVG Repo Mixer Tools -->
<svg height="800px" width="800px" version="1.1" id="Layer_1" xmlns="http://www.w3.org/2000/svg" xmlns:xlink="http://www.w3.org/1999/xlink" 
	 viewBox="0 0 505 505" xml:space="preserve">
<circle style="fill:#84DBFF;" cx="252.5" cy="252.5" r="252.5"/>
<path style="fill:#FFFFFF;" d="M422.8,302.1l13.9-13.9c19.7-19.7,19.7-51.7,0-71.4l-13.9-13.9c-9.5-9.5-14.8-22.3-14.8-35.7v-19.7
	c0-27.9-22.6-50.5-50.5-50.5h-19.7c-13.4,0-26.2-5.3-35.7-14.8l-13.9-13.9c-19.7-19.7-51.7-19.7-71.4,0l-13.9,13.9
	c-9.5,9.5-22.3,14.8-35.7,14.8h-19.7C119.6,97,97,119.6,97,147.5v19.7c0,13.4-5.3,26.2-14.8,35.7l-13.9,13.9
	c-19.7,19.7-19.7,51.7,0,71.4l13.9,13.9c9.5,9.5,14.8,22.3,14.8,35.7v19.7c0,27.9,22.6,50.5,50.5,50.5h19.7
	c13.4,0,26.2,5.3,35.7,14.8l13.9,13.9c19.7,19.7,51.7,19.7,71.4,0l13.9-13.9c9.5-9.5,22.3-14.8,35.7-14.8h19.7
	c27.9,0,50.5-22.6,50.5-50.5v-19.7C408,324.4,413.3,311.6,422.8,302.1z"/>
<path style="fill:#FF7058;" d="M422,252.5c0,12.4-4.8,24.1-13.6,32.9l-11.5,11.5c-7.1,7.1-10.9,16.4-10.9,26.3v16.3
	c0,25.6-20.8,46.5-46.5,46.5h-16.3c-9.9,0-19.3,3.9-26.3,10.9l-11.5,11.5c-8.8,8.8-20.5,13.6-32.9,13.6c-12.5,0-24.1-4.8-32.9-13.6
	L208,396.9c-7-7-16.3-10.9-26.3-10.9h-16.2c-25.6,0-46.5-20.9-46.5-46.5v-16.3c0-10-3.9-19.3-10.9-26.3l-11.5-11.5
	c-8.7-8.7-13.6-20.5-13.6-32.9s4.8-24.1,13.6-32.9l11.5-11.5c7.1-7,10.9-16.4,10.9-26.3v-16.3c0-25.6,20.9-46.5,46.5-46.5h16.3
	c10,0,19.3-3.9,26.3-10.9l11.5-11.5c8.8-8.8,20.5-13.6,32.9-13.6s24.1,4.8,32.9,13.6l11.5,11.5c7,7,16.4,10.9,26.3,10.9h16.3
	c25.7,0,46.5,20.8,46.5,46.5v16.3c0,9.9,3.9,19.3,10.9,26.3l11.5,11.5C417.2,228.4,422,240.1,422,252.5z"/>
<g>
	<path style="fill:#FFFFFF;" d="M185.6,244.3h-22.4v-51.1h19.9c3.5,0,6.4,0.4,9,1.2c2.5,0.8,4.4,1.9,5.7,3.4
		c2.3,2.6,3.4,5.6,3.4,8.9c0,4-1.3,7-3.9,8.9c-0.9,0.7-1.5,1.1-1.8,1.3s-1,0.5-1.8,0.8c3.2,0.7,5.7,2.1,7.6,4.3
		c1.9,2.2,2.8,4.9,2.8,8.1c0,3.6-1.2,6.7-3.7,9.4C197.5,242.8,192.6,244.3,185.6,244.3z M174.6,213.9h5.4c3.2,0,5.5-0.3,7.1-1
		c1.5-0.7,2.3-2.2,2.3-4.4c0-2.3-0.7-3.8-2.1-4.5c-1.4-0.7-3.8-1.1-7.2-1.1h-5.5V213.9z M174.6,234.7h7.8c3.3,0,5.7-0.4,7.3-1.2
		s2.4-2.4,2.4-4.7c0-2.4-0.9-3.9-2.6-4.7c-1.7-0.8-4.5-1.1-8.3-1.1h-6.7v11.7H174.6z"/>
	<path style="fill:#FFFFFF;" d="M250.4,193.3v10.2H225V214h22.9v9.7H225v10.6h26.2v10.1h-37.6v-51.1L250.4,193.3L250.4,193.3z"/>
	<path style="fill:#FFFFFF;" d="M273.3,203.5c-1.1,0.9-1.6,2.1-1.6,3.6s0.7,2.7,2,3.5c1.3,0.9,4.4,1.9,9.3,3.1
		c4.8,1.2,8.6,3,11.3,5.4c2.7,2.4,4,5.9,4,10.5s-1.7,8.3-5.1,11.1c-3.4,2.9-8,4.3-13.6,4.3c-8.1,0-15.4-3-21.8-9l6.8-8.3
		c5.5,4.8,10.6,7.2,15.3,7.2c2.1,0,3.7-0.5,4.9-1.4c1.2-0.9,1.8-2.1,1.8-3.7c0-1.5-0.6-2.8-1.9-3.7s-3.8-1.8-7.5-2.7
		c-5.9-1.4-10.3-3.3-13-5.5c-2.8-2.3-4.1-5.8-4.1-10.7c0-4.8,1.7-8.6,5.2-11.2c3.5-2.6,7.8-3.9,13-3.9c3.4,0,6.8,0.6,10.2,1.8
		c3.4,1.2,6.4,2.8,8.9,5l-5.8,8.3c-4.4-3.4-9-5-13.7-5C275.9,202.1,274.4,202.6,273.3,203.5z"/>
	<path style="fill:#FFFFFF;" d="M329.1,203.1v41.2h-11.4v-41.2h-14.5v-9.9h40.3v9.9H329.1z"/>
	<path style="fill:#FFFFFF;" d="M178.8,265.8c3.6,3,5.4,7.7,5.4,14s-1.8,10.9-5.5,13.8s-9.3,4.4-16.8,4.4h-6.8v14.2h-11.4v-51.1h18
		C169.6,261.2,175.3,262.7,178.8,265.8z M170.5,285.9c1.4-1.5,2-3.8,2-6.7c0-2.9-0.9-5-2.7-6.3c-1.8-1.2-4.5-1.9-8.3-1.9H155v17.2
		h7.7C166.5,288.2,169.1,287.4,170.5,285.9z"/>
	<path style="fill:#FFFFFF;" d="M234.6,278.2c0,8.2-3.2,13.5-9.7,15.9l12.9,18.3h-14l-11.3-16.3h-8v16.3h-11.4v-51.1h19.4
		c7.9,0,13.6,1.3,17,4C232.9,267.9,234.6,272.2,234.6,278.2z M220.8,284.2c1.4-1.3,2.1-3.3,2.1-6c0-2.8-0.7-4.6-2.2-5.7
		c-1.5-1-4-1.5-7.7-1.5h-8.5v15.1h8.3C216.8,286.1,219.4,285.5,220.8,284.2z"/>
	<path style="fill:#FFFFFF;" d="M246.2,261.2h11.4v51.1h-11.4L246.2,261.2L246.2,261.2z"/>
	<path style="fill:#FFFFFF;" d="M293.7,302.2c5.6,0,10.2-2.2,13.7-6.6l7.3,7.5c-5.8,6.5-12.6,9.8-20.5,9.8s-14.3-2.5-19.4-7.5
		s-7.6-11.2-7.6-18.8c0-7.6,2.6-13.9,7.8-19c5.2-5.1,11.5-7.6,19-7.6c8.4,0,15.4,3.2,21,9.6l-7.1,8c-3.6-4.5-8.1-6.7-13.4-6.7
		c-4.3,0-8,1.4-11,4.2c-3,2.8-4.6,6.6-4.6,11.3c0,4.8,1.4,8.6,4.3,11.4C286.1,300.8,289.6,302.2,293.7,302.2z"/>
	<path style="fill:#FFFFFF;" d="M360.5,261.2v10.2h-25.4v10.5H358v9.7h-22.9v10.6h26.2v10.1h-37.6v-51.1L360.5,261.2L360.5,261.2z"
		/>
</g>
</svg>